<svg xmlns="http://www.w3.org/2000/svg" xmlns:xlink="http://www.w3.org/1999/xlink" width="151.709" height="33.249" viewBox="0 0 151.709 33.249">
  <defs>
    <clipPath id="clip-path">
      <rect width="151.709" height="33.249" fill="none"/>
    </clipPath>
  </defs>
  <g id="Symbols" clip-path="url(#clip-path)">
    <g id="Symbols-2" data-name="Symbols" transform="translate(-0.323)">
      <g id="Header-_-Desktop-_-Logged-In" data-name="Header-/-Desktop-/-Logged-In" transform="translate(-34 -28)">
        <g id="header_desktop_games" data-name="header/desktop/games">
          <g id="main-header-desktop">
            <g id="Logo-_-Full" data-name="Logo-/-Full" transform="translate(34 28)">
              <g id="logo">
                <path id="FANTASYBET" d="M44.464,11.768H40l-.624,3.624h4.152l-.552,3.192H38.848l-1.2,6.84H34L36.952,8.432H45.04ZM51.88,25.424l-.072-3.192h-3.96l-1.272,3.192h-3.84L50.1,8.432h4.632l.888,16.992ZM51.712,12.1h-.1l-2.808,7.3h3.048Zm16.824,13.32h-3.96L62.344,14.84h-.072L60.544,25.424H57.232L60.184,8.432H64.24L66.376,19.16h.1L68.248,8.432h3.24ZM82.288,11.576h-3.12L76.744,25.424H73.1L75.52,11.576H72.4l.552-3.144H82.84Zm6.768,13.848-.072-3.192h-3.96l-1.272,3.192h-3.84L87.28,8.432h4.632L92.8,25.424ZM88.888,12.1h-.1l-2.808,7.3h3.048Zm14.9.216a2.886,2.886,0,0,0-1.008-.756,2.954,2.954,0,0,0-1.248-.276,2.117,2.117,0,0,0-.708.132,2.043,2.043,0,0,0-.672.4,2.222,2.222,0,0,0-.5.66,2.047,2.047,0,0,0-.2.948,1.635,1.635,0,0,0,.42,1.152,5.291,5.291,0,0,0,1.26.936q.48.288,1.02.684a5.429,5.429,0,0,1,.984.936,4.792,4.792,0,0,1,.732,1.248,4.341,4.341,0,0,1,.288,1.644,6.174,6.174,0,0,1-.492,2.556,5.3,5.3,0,0,1-1.32,1.824,5.49,5.49,0,0,1-1.884,1.092,6.722,6.722,0,0,1-2.184.36,7.5,7.5,0,0,1-2.856-.528,5.629,5.629,0,0,1-2.016-1.3l2.184-2.76a3.735,3.735,0,0,0,1.188.9,3.306,3.306,0,0,0,1.476.348,2.25,2.25,0,0,0,1.452-.552,1.958,1.958,0,0,0,.48-.648,2.011,2.011,0,0,0,.18-.864,1.958,1.958,0,0,0-.42-1.236,4.725,4.725,0,0,0-1.38-1.092,10.17,10.17,0,0,1-1.068-.7,4.459,4.459,0,0,1-1.548-2.112,4.632,4.632,0,0,1-.24-1.56,5.963,5.963,0,0,1,.432-2.28,5.483,5.483,0,0,1,1.2-1.824,5.578,5.578,0,0,1,1.848-1.212A6.191,6.191,0,0,1,101.56,8a7.062,7.062,0,0,1,2.616.456,4.556,4.556,0,0,1,1.8,1.2Zm8.832,6.96-1.08,6.144h-3.72l1.08-6.144L106.6,8.432h3.888l.888,7.056h.072l3.36-7.056h4.008ZM129.5,12.32a5,5,0,0,1-.228,1.56,4.2,4.2,0,0,1-.624,1.224,3.994,3.994,0,0,1-.912.888,4.15,4.15,0,0,1-1.116.552l.024.048a2.717,2.717,0,0,1,.816.384,3.064,3.064,0,0,1,.7.672,3.225,3.225,0,0,1,.492.948,3.82,3.82,0,0,1,.18,1.212,5.748,5.748,0,0,1-.516,2.544,5.083,5.083,0,0,1-1.356,1.74,5.57,5.57,0,0,1-1.884,1.008,7.127,7.127,0,0,1-2.124.324h-5.616L120.28,8.432h4.944a5.738,5.738,0,0,1,1.5.2,4.02,4.02,0,0,1,1.368.66,3.544,3.544,0,0,1,1.008,1.2A3.843,3.843,0,0,1,129.5,12.32Zm-3.384.744a1.422,1.422,0,0,0-.48-1.164,1.787,1.787,0,0,0-1.176-.4h-1.272l-.672,3.84h1.368a2.567,2.567,0,0,0,.792-.132,2.005,2.005,0,0,0,.72-.408,2.162,2.162,0,0,0,.516-.708A2.4,2.4,0,0,0,126.112,13.064Zm-.816,6.744a1.541,1.541,0,0,0-.564-1.356,2.105,2.105,0,0,0-1.236-.4h-1.464l-.744,4.272h1.488a2.609,2.609,0,0,0,1.812-.636A2.4,2.4,0,0,0,125.3,19.808Zm15.288-8.136h-4.44L135.52,15.2h4.152l-.528,3.024h-4.128l-.672,3.888h4.848l-.576,3.312H130.24l2.952-16.992h7.944Zm10.9-.1h-3.12l-2.424,13.848h-3.648l2.424-13.848h-3.12l.552-3.144h9.888Z" fill="#9ca3af" fillRule="evenodd"/>
                <g id="Logo-_-Icon" data-name="Logo-/-Icon">
                  <g id="icon" transform="translate(0.323)">
                    <path id="Mask" d="M6.471,0V6.49H0V27.775l8.814,5.473V21.818H13.76l5.475-8.839H8.814V8.839h15.76L30.031,0ZM8.814,2.349H25.742L23.236,6.49H8.814ZM2.343,26.268V8.839H6.471V28.815Zm6.471-10.94h6.261L12.44,19.469H8.814Z" fill="#9ca3af"/>
                    <path id="Path" d="M6.469,8.837H8.806v4.126H6.469Z" fill="#9ca3af" fillRule="evenodd" opacity="0.14"/>
                    <path id="Path-2" data-name="Path" d="M9.429,18.869h2.424V22.4l-2.424.025Z" transform="translate(-10.005 31.288) rotate(-90)" fill="#9ca3af" fillRule="evenodd" opacity="0.181"/>
                  </g>
                </g>
              </g>
            </g>
          </g>
        </g>
      </g>
    </g>
  </g>
</svg>
