<svg xmlns="http://www.w3.org/2000/svg" xmlns:xlink="http://www.w3.org/1999/xlink" width="136.574" height="44.841" viewBox="0 0 136.574 44.841">
  <defs>
    <clipPath id="clip-path">
      <rect width="136.574" height="44.841" fill="none"/>
    </clipPath>
    <linearGradient id="linear-gradient" x1="0.313" y1="1.057" x2="0.737" y2="-0.063" gradientUnits="objectBoundingBox">
      <stop offset="0" stop-color="#1df87c"/>
      <stop offset="0.138" stop-color="#27f96b"/>
      <stop offset="0.52" stop-color="#3efc41"/>
      <stop offset="0.821" stop-color="#4dfe28"/>
      <stop offset="1" stop-color="#52ff1e"/>
    </linearGradient>
    <linearGradient id="linear-gradient-2" x1="0.313" y1="1.055" x2="0.736" y2="-0.063" xlink:href="#linear-gradient"/>
    <linearGradient id="linear-gradient-3" x1="0.391" y1="0.995" x2="0.695" y2="-0.016" xlink:href="#linear-gradient"/>
  </defs>
  <g id="logo" clip-path="url(#clip-path)">
    <g id="logo-2" data-name="logo" transform="translate(0 0)">
      <path id="Path_24" data-name="Path 24" d="M23.876.119,4.831,19.473a2.389,2.389,0,0,0,0,3.345,2.294,2.294,0,0,0,1.663.677,2.339,2.339,0,0,0,1.663-.717s5.781-6.013,14.967-15.212C24.312,6.412,23.876.119,23.876.119Z" transform="translate(-0.346 -0.119)" fill="url(#linear-gradient)"/>
      <path id="Path_25" data-name="Path 25" d="M20.075,16.606,1.029,36a2.389,2.389,0,0,0,0,3.345,2.294,2.294,0,0,0,1.663.677,2.339,2.339,0,0,0,1.663-.717s7.879-8.124,14.967-15.212C20.471,22.9,20.075,16.606,20.075,16.606Z" transform="translate(-0.346 -0.119)" fill="url(#linear-gradient-2)"/>
      <path id="Path_26" data-name="Path 26" d="M8.592,44.243a2.21,2.21,0,0,0,1.663.717,2.046,2.046,0,0,0,1.069-.279c.752-.717,1.5-1.434,2.217-2.15,1.109-1.075.95-6.412.911-7.327L8.632,40.9A2.354,2.354,0,0,0,8.592,44.243Z" transform="translate(-0.346 -0.119)" fill="url(#linear-gradient-3)"/>
      <g id="Group_10" data-name="Group 10" transform="translate(29.31 14.811)">
        <path id="Path_27" data-name="Path 27" d="M4.316,3.823V8.6h7.8v3.823h-7.8v7.8H.356V0h12V3.823Z" transform="translate(-0.356)" fill="#fff"/>
        <path id="Path_28" data-name="Path 28" d="M29.657,5.774V20.19H25.975V18.478A5.638,5.638,0,0,1,21.3,20.588c-3.8,0-6.969-3.305-6.969-7.606S17.5,5.376,21.3,5.376a5.638,5.638,0,0,1,4.672,2.111V5.774Zm-3.722,7.208a3.868,3.868,0,0,0-4-4.062,3.859,3.859,0,0,0-3.96,4.062,3.859,3.859,0,0,0,3.96,4.062A3.868,3.868,0,0,0,25.935,12.982Zm20.471-1.593V20.23H42.723v-8.4a2.7,2.7,0,0,0-2.851-2.987c-1.821,0-3.168,1.075-3.168,3.584V20.23H33.023V5.814H36.7V7.447a4.832,4.832,0,0,1,4.276-2.031C44.03,5.416,46.406,7.527,46.406,11.389Z" transform="translate(-0.356)" fill="#fff"/>
        <path id="Path_29" data-name="Path 29" d="M63,3.863H57.572V20.23h-3.96V3.863H48.227V.04H63Z" transform="translate(-0.356)" fill="#fff"/>
        <path id="Path_30" data-name="Path 30" d="M69.569,17.283a3.967,3.967,0,0,0,3.207-1.434l2.97,1.752a7.234,7.234,0,0,1-6.256,3.066c-4.831,0-7.84-3.305-7.84-7.606a7.407,7.407,0,1,1,14.809,0,6.121,6.121,0,0,1-.158,1.513H65.491C66.045,16.487,67.629,17.283,69.569,17.283Zm3.247-5.575A3.5,3.5,0,0,0,69.252,8.8a3.6,3.6,0,0,0-3.762,2.907ZM78.2,13.062a7.413,7.413,0,0,1,7.563-7.606A7.21,7.21,0,0,1,92.178,9.2L89.01,11.071a3.522,3.522,0,0,0-3.247-1.951,3.755,3.755,0,0,0-3.841,3.942A3.778,3.778,0,0,0,85.764,17a3.468,3.468,0,0,0,3.286-1.912l3.207,1.832A7.541,7.541,0,0,1,78.2,13.062Zm29.419-1.633V20.27h-3.682v-8.4a2.7,2.7,0,0,0-2.851-2.987c-1.821,0-3.168,1.075-3.168,3.584V20.27H94.237L94.277.08h3.682V7.447a4.832,4.832,0,0,1,4.276-2.031C105.245,5.456,107.62,7.606,107.62,11.429Z" transform="translate(-0.356)" fill="#fff"/>
      </g>
    </g>
  </g>
</svg>
