<svg xmlns="http://www.w3.org/2000/svg" xmlns:xlink="http://www.w3.org/1999/xlink" width="184.387" height="47.414" viewBox="0 0 184.387 47.414">
  <defs>
    <linearGradient id="linear-gradient" x2="1" gradientUnits="objectBoundingBox">
      <stop offset="0" stop-color="#834f2a"/>
      <stop offset="0.5" stop-color="#dba173"/>
      <stop offset="1" stop-color="#834f2a"/>
    </linearGradient>
  </defs>
  <g id="Glaciera-Logo-Full" transform="translate(0 0)">
    <g id="SvgjsG1472" transform="translate(0 0)">
      <path id="Path_31" data-name="Path 31" d="M77,54.406c-.2,4.6-4.52,7.358-7.732,9.992-3.109,2.557-5.252,5.778-7.987,8.693-3.625,3.84-8.008,4.7-12.078.946-2.91-2.685-4.9-6.177-7.916-8.775s-7.43-5.113-8.519-9.194c-1.248-4.663,2.981-8.023,6.192-10.6a60.206,60.206,0,0,0,8.176-8.453c3.022-3.579,7.072-6.53,11.623-3.513C62.528,36,64.65,40.39,68.02,43.361,71.472,46.4,76.774,49.267,77,54.406c.046.982,1.58.987,1.534,0-.22-4.873-4.167-7.829-7.67-10.656C66.992,40.6,64.5,36.233,60.7,33.068c-3.278-2.731-7.363-3.206-10.933-.711-4,2.807-6.341,7.42-10.058,10.549-3.273,2.741-7.686,5.507-8.555,10.033-.89,4.658,2.649,8.146,5.932,10.841a49.514,49.514,0,0,1,5.354,4.715c1.6,1.779,3.068,3.871,4.745,5.661,2.889,3.073,6.832,5.159,11,3.262,4.832-2.224,7.261-7.7,11.168-11.071,3.825-3.324,8.938-6.315,9.189-11.94C78.585,53.419,77.05,53.419,77,54.406Z" transform="translate(-31.013 -30.728)" fill="url(#linear-gradient)"/>
    </g>
    <g id="SvgjsG1473" transform="translate(57.748 14.69)">
      <path id="Path_32" data-name="Path 32" d="M40.258,131.687v8.994a10.061,10.061,0,0,1-6.424,1.914,9.151,9.151,0,0,1-9.518-9.439,9.261,9.261,0,0,1,9.466-9.439,9.957,9.957,0,0,1,6.293,2.229l-1.232,1.783a8.076,8.076,0,0,0-5.061-1.757,6.914,6.914,0,0,0-7,7.184,6.772,6.772,0,0,0,7.053,7.158,9.407,9.407,0,0,0,4.064-.865v-5.48h-3.54l.157-2.281Zm7.262,8.39h7.761l-.157,2.255H45.161V123.978h2.36v16.1Zm23.414,2.255-1.6-3.723H61.155l-1.6,3.723H57.038l8.076-18.616h.262l8.076,18.616H70.935ZM62.1,136.407h6.293l-3.146-7.263Zm13.975-3.251a9.345,9.345,0,0,1,9.413-9.439,10.066,10.066,0,0,1,6.162,2.15l-1.18,1.835a7.92,7.92,0,0,0-4.982-1.757,7.212,7.212,0,0,0,0,14.421,6.98,6.98,0,0,0,4.982-1.862l1.206,1.809a9.446,9.446,0,0,1-15.6-7.158Zm19.743,9.177V123.978h2.36v18.354Zm18.537-2.255.157,2.255h-11.17V123.978h10.645l.184,2.255H105.7v4.484h5.742v2.255H105.7v7.106ZM132,130.612c0,2.963-1.39,5.506-4.248,6.345l3.959,5.375h-2.832l-3.749-5.087h-4.117v5.087h-2.36V123.978h6.922c4.326,0,6.424,2.989,6.424,6.634Zm-10.986-4.431v8.836h4.457c2.963,0,4.169-2.176,4.169-4.405s-1.206-4.431-4.169-4.431Zm27.426,16.152-1.6-3.723h-8.181l-1.6,3.723h-2.517l8.076-18.616h.262l8.076,18.616Zm-8.836-5.926H145.9l-3.146-7.263Z" transform="translate(-24.317 -123.716)" fill="url(#linear-gradient)"/>
    </g>
  </g>
</svg>
