<svg xmlns="http://www.w3.org/2000/svg" width="149.148" height="38.352" viewBox="0 0 149.148 38.352">
  <g id="Glaciera-Logo-Full" transform="translate(0 0)">
    <g id="SvgjsG1472" transform="translate(0 0)">
      <path id="Path_8" data-name="Path 8" d="M68.215,49.881c-.165,3.723-3.656,5.952-6.254,8.082-2.515,2.068-4.248,4.674-6.461,7.032-2.933,3.106-6.477,3.805-9.77.765-2.353-2.172-3.967-5-6.4-7.1s-6.01-4.136-6.891-7.437c-1.009-3.772,2.411-6.49,5.009-8.57a48.7,48.7,0,0,0,6.614-6.837c2.444-2.9,5.72-5.282,9.4-2.842,3.044,2.014,4.761,5.567,7.487,7.97,2.792,2.457,7.081,4.777,7.267,8.934.037.794,1.278.8,1.241,0-.178-3.942-3.371-6.333-6.2-8.62-3.135-2.548-5.15-6.08-8.227-8.64a6.977,6.977,0,0,0-8.843-.575c-3.239,2.271-5.129,6-8.136,8.533-2.647,2.217-6.217,4.455-6.92,8.115-.72,3.768,2.143,6.589,4.8,8.769a40.051,40.051,0,0,1,4.331,3.814c1.295,1.439,2.482,3.131,3.838,4.579,2.337,2.486,5.526,4.173,8.9,2.639,3.909-1.8,5.873-6.225,9.033-8.955,3.094-2.689,7.23-5.108,7.433-9.658C69.493,49.083,68.252,49.083,68.215,49.881Z" transform="translate(-31.013 -30.728)" fill="#9ca3af"/>
    </g>
    <g id="SvgjsG1473" transform="translate(46.711 11.883)">
      <path id="Path_9" data-name="Path 9" d="M37.212,130.164v7.275a8.138,8.138,0,0,1-5.2,1.548,7.4,7.4,0,0,1-7.7-7.635,7.491,7.491,0,0,1,7.657-7.635,8.054,8.054,0,0,1,5.09,1.8l-1,1.442a6.533,6.533,0,0,0-4.093-1.421,5.593,5.593,0,0,0-5.663,5.811,5.478,5.478,0,0,0,5.705,5.79,7.609,7.609,0,0,0,3.287-.7v-4.433H32.44l.127-1.845Zm5.874,6.787h6.278l-.127,1.824H41.177V123.928h1.909Zm18.939,1.824-1.294-3.012H54.114l-1.294,3.012H50.785l6.532-15.059h.212l6.532,15.059Zm-7.147-4.793h5.09l-2.545-5.875Zm11.3-2.63a7.559,7.559,0,0,1,7.614-7.635,8.142,8.142,0,0,1,4.984,1.739l-.954,1.485a6.407,6.407,0,0,0-4.03-1.421,5.834,5.834,0,0,0,0,11.665,5.646,5.646,0,0,0,4.03-1.506l.976,1.463a7.64,7.64,0,0,1-12.619-5.79Zm15.97,7.423V123.928h1.909v14.846Zm14.994-1.824.127,1.824H88.238V123.928h8.611L97,125.752H90.147v3.627h4.645V131.2H90.147v5.748Zm14.273-7.657c0,2.4-1.124,4.454-3.436,5.133l3.2,4.348H108.9l-3.033-4.115h-3.33v4.115h-1.909V123.928h5.6c3.5,0,5.2,2.418,5.2,5.366Zm-8.887-3.584v7.147h3.606a3.246,3.246,0,0,0,3.372-3.563c0-1.8-.976-3.584-3.372-3.584Zm22.184,13.065-1.294-3.012h-6.617l-1.294,3.012h-2.036l6.532-15.059h.212l6.532,15.059Zm-7.147-4.793h5.09l-2.545-5.875Z" transform="translate(-24.317 -123.716)" fill="#9ca3af"/>
    </g>
  </g>
</svg>
