<svg xmlns="http://www.w3.org/2000/svg" width="173.571" height="27.85" viewBox="0 0 173.571 27.85">
  <g id="Group_8" data-name="Group 8" transform="translate(-172.293 -429)">
    <path id="Path_33" data-name="Path 33" d="M5.5,0A3.3,3.3,0,0,1,3.55-.6,3.983,3.983,0,0,1,2.225-2.237,5.679,5.679,0,0,1,1.75-4.625v-13.65a1.218,1.218,0,0,1,.35-.9,1.218,1.218,0,0,1,.9-.35,1.218,1.218,0,0,1,.9.35,1.218,1.218,0,0,1,.35.9v13.65A2.993,2.993,0,0,0,4.6-3.1a1.03,1.03,0,0,0,.9.6h.625a1.038,1.038,0,0,1,.813.35,1.3,1.3,0,0,1,.313.9,1.072,1.072,0,0,1-.475.9A2.013,2.013,0,0,1,5.55,0Zm9.925.1a7.521,7.521,0,0,1-3.688-.888,6.489,6.489,0,0,1-2.525-2.45A6.982,6.982,0,0,1,8.3-6.825a7.353,7.353,0,0,1,.863-3.613,6.306,6.306,0,0,1,2.387-2.45,6.83,6.83,0,0,1,3.5-.887,6.262,6.262,0,0,1,3.35.862,5.621,5.621,0,0,1,2.138,2.375,7.863,7.863,0,0,1,.737,3.488,1.046,1.046,0,0,1-.325.788,1.142,1.142,0,0,1-.825.312H10.05v-2h10l-1.025.7a5.35,5.35,0,0,0-.5-2.238,3.8,3.8,0,0,0-1.35-1.562,3.784,3.784,0,0,0-2.125-.575A4.551,4.551,0,0,0,12.613-11a4.026,4.026,0,0,0-1.538,1.713,5.593,5.593,0,0,0-.525,2.462,4.784,4.784,0,0,0,.625,2.45,4.567,4.567,0,0,0,1.725,1.7,5.021,5.021,0,0,0,2.525.625,4.743,4.743,0,0,0,1.588-.288A4.932,4.932,0,0,0,18.325-3a1.417,1.417,0,0,1,.813-.288,1.093,1.093,0,0,1,.763.263,1.184,1.184,0,0,1,.45.825.887.887,0,0,1-.4.775,6.913,6.913,0,0,1-2.112,1.1A7.558,7.558,0,0,1,15.425.1Zm14.3,0A6.02,6.02,0,0,1,26.45-.812a6.485,6.485,0,0,1-2.288-2.475,7.369,7.369,0,0,1-.838-3.537,6.951,6.951,0,0,1,.913-3.55,6.75,6.75,0,0,1,2.475-2.488,6.835,6.835,0,0,1,3.512-.912,6.768,6.768,0,0,1,3.5.912,6.78,6.78,0,0,1,2.463,2.488,6.951,6.951,0,0,1,.912,3.55h-.975a7.369,7.369,0,0,1-.838,3.537A6.485,6.485,0,0,1,33-.812,6.02,6.02,0,0,1,29.725.1Zm.5-2.25A4.267,4.267,0,0,0,32.5-2.763a4.355,4.355,0,0,0,1.575-1.675,4.934,4.934,0,0,0,.575-2.387,4.987,4.987,0,0,0-.575-2.413A4.355,4.355,0,0,0,32.5-10.913a4.267,4.267,0,0,0-2.275-.612,4.286,4.286,0,0,0-2.262.612,4.417,4.417,0,0,0-1.6,1.675,4.9,4.9,0,0,0-.587,2.413,4.85,4.85,0,0,0,.587,2.387,4.417,4.417,0,0,0,1.6,1.675A4.286,4.286,0,0,0,30.225-2.15Zm5.6,2.175a1.237,1.237,0,0,1-.912-.363,1.237,1.237,0,0,1-.362-.912V-5.075l.475-2.65,2.075.9V-1.25a1.237,1.237,0,0,1-.362.912A1.237,1.237,0,0,1,35.825.025ZM47.1.1a6.835,6.835,0,0,1-3.513-.913A6.75,6.75,0,0,1,41.113-3.3,6.951,6.951,0,0,1,40.2-6.85a7.369,7.369,0,0,1,.838-3.537,6.485,6.485,0,0,1,2.287-2.475,6.02,6.02,0,0,1,3.275-.912,6.109,6.109,0,0,1,2.725.613,6.14,6.14,0,0,1,2.1,1.662v-6.75a1.227,1.227,0,0,1,.362-.925,1.261,1.261,0,0,1,.912-.35,1.25,1.25,0,0,1,.925.35,1.25,1.25,0,0,1,.35.925v11.4a6.951,6.951,0,0,1-.913,3.55A6.78,6.78,0,0,1,50.6-.812,6.768,6.768,0,0,1,47.1.1Zm0-2.25a4.267,4.267,0,0,0,2.275-.612A4.332,4.332,0,0,0,50.95-4.45a5.007,5.007,0,0,0,.575-2.4,4.915,4.915,0,0,0-.575-2.4,4.379,4.379,0,0,0-1.575-1.663,4.267,4.267,0,0,0-2.275-.612,4.286,4.286,0,0,0-2.263.612,4.443,4.443,0,0,0-1.6,1.663,4.831,4.831,0,0,0-.588,2.4,4.921,4.921,0,0,0,.588,2.4,4.393,4.393,0,0,0,1.6,1.688A4.286,4.286,0,0,0,47.1-2.15ZM63.45.1a9.46,9.46,0,0,1-3.237-.538A6.2,6.2,0,0,1,57.9-1.8a1.089,1.089,0,0,1-.312-.912,1.2,1.2,0,0,1,.487-.838,1.3,1.3,0,0,1,.988-.337,1.353,1.353,0,0,1,.837.438,3.965,3.965,0,0,0,1.362.887,5.129,5.129,0,0,0,2.088.412,4.217,4.217,0,0,0,2.213-.475A1.471,1.471,0,0,0,66.35-3.85a1.527,1.527,0,0,0-.713-1.3,6.809,6.809,0,0,0-2.687-.9,7.9,7.9,0,0,1-3.662-1.5A3.14,3.14,0,0,1,58.15-10a3.048,3.048,0,0,1,.75-2.113,4.551,4.551,0,0,1,1.925-1.25,7.342,7.342,0,0,1,2.45-.412,7.631,7.631,0,0,1,2.925.525,4.988,4.988,0,0,1,2.025,1.45,1.153,1.153,0,0,1,.325.838.968.968,0,0,1-.425.737,1.226,1.226,0,0,1-.95.175,1.792,1.792,0,0,1-.925-.45,3.406,3.406,0,0,0-1.35-.825,5.659,5.659,0,0,0-1.675-.225,4.192,4.192,0,0,0-1.862.375,1.185,1.185,0,0,0-.763,1.1,1.45,1.45,0,0,0,.237.813,2,2,0,0,0,.938.65,12.036,12.036,0,0,0,2.05.563,11.148,11.148,0,0,1,2.963.95A3.953,3.953,0,0,1,68.35-5.762,3.264,3.264,0,0,1,68.825-4a3.675,3.675,0,0,1-.612,2.075,4.211,4.211,0,0,1-1.8,1.475A7.043,7.043,0,0,1,63.45.1Zm9.875,5.75A1.239,1.239,0,0,1,72.05,4.575v-11.4a7.216,7.216,0,0,1,.925-3.55,6.684,6.684,0,0,1,2.45-2.488,6.768,6.768,0,0,1,3.5-.912,6.817,6.817,0,0,1,3.525.912,6.78,6.78,0,0,1,2.463,2.488,6.951,6.951,0,0,1,.912,3.55,7.369,7.369,0,0,1-.838,3.537A6.485,6.485,0,0,1,82.7-.812,6.02,6.02,0,0,1,79.425.1a6.03,6.03,0,0,1-2.713-.612A6.433,6.433,0,0,1,74.6-2.175v6.75a1.261,1.261,0,0,1-.35.913A1.227,1.227,0,0,1,73.325,5.85Zm5.6-8A4.267,4.267,0,0,0,81.2-2.763a4.449,4.449,0,0,0,1.588-1.675,4.85,4.85,0,0,0,.587-2.387,4.9,4.9,0,0,0-.587-2.413A4.449,4.449,0,0,0,81.2-10.913a4.267,4.267,0,0,0-2.275-.612,4.286,4.286,0,0,0-2.262.612,4.325,4.325,0,0,0-1.588,1.675A4.987,4.987,0,0,0,74.5-6.825a4.934,4.934,0,0,0,.575,2.387,4.325,4.325,0,0,0,1.588,1.675A4.286,4.286,0,0,0,78.925-2.15ZM95.325.1A6.02,6.02,0,0,1,92.05-.812a6.485,6.485,0,0,1-2.288-2.475,7.369,7.369,0,0,1-.837-3.537,6.951,6.951,0,0,1,.912-3.55,6.75,6.75,0,0,1,2.475-2.488,6.835,6.835,0,0,1,3.512-.912,6.768,6.768,0,0,1,3.5.912,6.78,6.78,0,0,1,2.463,2.488,6.951,6.951,0,0,1,.912,3.55h-.975a7.369,7.369,0,0,1-.838,3.537A6.485,6.485,0,0,1,98.6-.812,6.02,6.02,0,0,1,95.325.1Zm.5-2.25A4.267,4.267,0,0,0,98.1-2.763a4.355,4.355,0,0,0,1.575-1.675,4.935,4.935,0,0,0,.575-2.387,4.987,4.987,0,0,0-.575-2.413A4.355,4.355,0,0,0,98.1-10.913a4.267,4.267,0,0,0-2.275-.612,4.286,4.286,0,0,0-2.262.612,4.417,4.417,0,0,0-1.6,1.675,4.9,4.9,0,0,0-.588,2.413,4.85,4.85,0,0,0,.588,2.387,4.417,4.417,0,0,0,1.6,1.675A4.286,4.286,0,0,0,95.825-2.15Zm5.6,2.175a1.237,1.237,0,0,1-.913-.363,1.237,1.237,0,0,1-.362-.912V-5.075l.475-2.65,2.075.9V-1.25a1.237,1.237,0,0,1-.362.912A1.237,1.237,0,0,1,101.425.025Zm6.3-8.575a4.989,4.989,0,0,1,.738-2.687,5.406,5.406,0,0,1,1.987-1.887,5.532,5.532,0,0,1,2.75-.7,4.108,4.108,0,0,1,2.238.487A1.031,1.031,0,0,1,116-12.175a.96.96,0,0,1-.287.537.993.993,0,0,1-.488.238,1.481,1.481,0,0,1-.6-.025,7.008,7.008,0,0,0-2.875-.05,3.893,3.893,0,0,0-2.012,1.025A2.6,2.6,0,0,0,109-8.55ZM107.75,0a1.281,1.281,0,0,1-.925-.312,1.244,1.244,0,0,1-.325-.937V-12.425a1.251,1.251,0,0,1,.325-.925,1.251,1.251,0,0,1,.925-.325,1.273,1.273,0,0,1,.938.313,1.273,1.273,0,0,1,.313.938V-1.25a1.281,1.281,0,0,1-.312.925A1.244,1.244,0,0,1,107.75,0Zm13.3-5L119.5-6.7l7.675-6.85a1.105,1.105,0,0,1,.837-.325,1.088,1.088,0,0,1,.788.4,1.09,1.09,0,0,1,.325.825,1.161,1.161,0,0,1-.4.8Zm-1.175,5a1.2,1.2,0,0,1-.887-.338,1.2,1.2,0,0,1-.338-.888V-18.3a1.2,1.2,0,0,1,.338-.888,1.2,1.2,0,0,1,.887-.337,1.2,1.2,0,0,1,.888.337,1.2,1.2,0,0,1,.337.888V-1.225a1.2,1.2,0,0,1-.337.888A1.2,1.2,0,0,1,119.875,0ZM128.8-.125a1.217,1.217,0,0,1-.888.288,1.124,1.124,0,0,1-.812-.438L122.025-6.55l1.75-1.65,5.2,6.4a1.181,1.181,0,0,1,.287.862A1.16,1.16,0,0,1,128.8-.125Zm5.3-8.425a4.989,4.989,0,0,1,.737-2.687,5.406,5.406,0,0,1,1.988-1.887,5.532,5.532,0,0,1,2.75-.7,4.108,4.108,0,0,1,2.238.487,1.031,1.031,0,0,1,.563,1.163.96.96,0,0,1-.288.537.993.993,0,0,1-.487.238,1.481,1.481,0,0,1-.6-.025,7.008,7.008,0,0,0-2.875-.05,3.893,3.893,0,0,0-2.012,1.025,2.6,2.6,0,0,0-.738,1.9ZM134.125,0a1.281,1.281,0,0,1-.925-.312,1.244,1.244,0,0,1-.325-.937V-12.425a1.251,1.251,0,0,1,.325-.925,1.251,1.251,0,0,1,.925-.325,1.273,1.273,0,0,1,.938.313,1.273,1.273,0,0,1,.313.938V-1.25a1.281,1.281,0,0,1-.312.925A1.243,1.243,0,0,1,134.125,0Z" transform="translate(203.456 451)" fill="#00ff6f"/>
    <g id="magnet-svgrepo-com_3_" data-name="magnet-svgrepo-com(3)" transform="translate(193.521 455.892) rotate(180)">
      <path id="Path_18" data-name="Path 18" d="M19.446,23.957H15.807a1.784,1.784,0,0,1-1.782-1.782v-11.5A3.458,3.458,0,0,0,10.667,7.2,3.416,3.416,0,0,0,7.2,10.614v6.268a.758.758,0,1,1-1.516,0V10.614a4.933,4.933,0,0,1,5-4.927,4.981,4.981,0,0,1,4.852,4.991v11.5a.266.266,0,0,0,.265.265h3.639a.266.266,0,0,0,.265-.265v-3.07a.758.758,0,0,1,1.516,0v3.07A1.784,1.784,0,0,1,19.446,23.957Zm-14.025,0H1.782A1.784,1.784,0,0,1,0,22.175V10.614a10.614,10.614,0,0,1,21.228,0v5.041a.758.758,0,0,1-1.516,0V10.614a9.1,9.1,0,0,0-18.2,0V22.175a.266.266,0,0,0,.265.265H5.421a.266.266,0,0,0,.265-.265V18.4a.758.758,0,1,1,1.516,0v3.777A1.784,1.784,0,0,1,5.421,23.957Z" transform="translate(0 0)" fill="#00ff6f"/>
      <path id="Path_19" data-name="Path 19" d="M5.686,0V4.435A1.023,1.023,0,0,1,4.662,5.459H1.023A1.023,1.023,0,0,1,0,4.435V0Z" transform="translate(14.784 17.74)" fill="#00ff6f"/>
      <path id="Path_20" data-name="Path 20" d="M5.421,6.975H1.782A1.784,1.784,0,0,1,0,5.193V.758A.758.758,0,0,1,.758,0H6.444A.758.758,0,0,1,7.2.758V5.193A1.784,1.784,0,0,1,5.421,6.975Zm-3.9-5.458V5.193a.266.266,0,0,0,.265.265H5.421a.266.266,0,0,0,.265-.265V1.516Z" transform="translate(14.025 16.982)" fill="#00ff6f"/>
      <path id="Path_21" data-name="Path 21" d="M5.686,0V4.435A1.023,1.023,0,0,1,4.663,5.459H1.023A1.023,1.023,0,0,1,0,4.435V0Z" transform="translate(0.758 17.74)" fill="#00ff6f"/>
      <g id="Group_7" data-name="Group 7" transform="translate(0 16.982)">
        <path id="Path_22" data-name="Path 22" d="M5.421,6.975H1.782A1.784,1.784,0,0,1,0,5.193V.758A.758.758,0,0,1,.758,0H6.444A.758.758,0,0,1,7.2.758V5.193A1.784,1.784,0,0,1,5.421,6.975Zm-3.9-5.458V5.193a.266.266,0,0,0,.265.265H5.421a.266.266,0,0,0,.265-.265V1.516Z" transform="translate(0 0)" fill="#00ff6f"/>
        <path id="Path_23" data-name="Path 23" d="M1.594,7.38a.758.758,0,0,1-.5-.946L2.6,4.179l-1.67.4A.758.758,0,0,1,.078,3.507L1.594.424a.758.758,0,1,1,1.361.669l-.8,1.636L3.538,2.4a.759.759,0,0,1,.728.218.88.88,0,0,1,.253.782L2.39,7A1.077,1.077,0,0,1,1.594,7.38Z" transform="translate(8.377 2.527)" fill="#00ff6f"/>
      </g>
    </g>
  </g>
</svg>
