<svg xmlns="http://www.w3.org/2000/svg" width="151.458" height="24.384" viewBox="0 0 151.458 24.384">
  <g id="Group_8" data-name="Group 8" transform="translate(-172.293 -428.73)">
    <path id="Path_34" data-name="Path 34" d="M4.84,0A2.9,2.9,0,0,1,3.124-.528,3.505,3.505,0,0,1,1.958-1.969a5,5,0,0,1-.418-2.1V-16.082a1.072,1.072,0,0,1,.308-.792,1.072,1.072,0,0,1,.792-.308,1.072,1.072,0,0,1,.792.308,1.072,1.072,0,0,1,.308.792V-4.07a2.634,2.634,0,0,0,.308,1.342A.907.907,0,0,0,4.84-2.2h.55a.914.914,0,0,1,.715.308A1.144,1.144,0,0,1,6.38-1.1a.944.944,0,0,1-.418.792A1.771,1.771,0,0,1,4.884,0Zm8.734.088a6.618,6.618,0,0,1-3.245-.781A5.711,5.711,0,0,1,8.107-2.849a6.144,6.144,0,0,1-.8-3.157,6.471,6.471,0,0,1,.759-3.179,5.55,5.55,0,0,1,2.1-2.156,6.01,6.01,0,0,1,3.08-.781,5.511,5.511,0,0,1,2.948.759,4.946,4.946,0,0,1,1.881,2.09A6.919,6.919,0,0,1,18.722-6.2a.921.921,0,0,1-.286.693,1,1,0,0,1-.726.275H8.844V-7h8.8l-.9.616a4.708,4.708,0,0,0-.44-1.969,3.34,3.34,0,0,0-1.188-1.375,3.33,3.33,0,0,0-1.87-.506,4,4,0,0,0-2.145.55A3.543,3.543,0,0,0,9.746-8.173a4.922,4.922,0,0,0-.462,2.167,4.21,4.21,0,0,0,.55,2.156,4.019,4.019,0,0,0,1.518,1.5,4.419,4.419,0,0,0,2.222.55,4.174,4.174,0,0,0,1.4-.253,4.34,4.34,0,0,0,1.155-.583,1.247,1.247,0,0,1,.715-.253.962.962,0,0,1,.671.231,1.042,1.042,0,0,1,.4.726.78.78,0,0,1-.352.682A6.083,6.083,0,0,1,15.7-.286,6.651,6.651,0,0,1,13.574.088Zm12.584,0a5.3,5.3,0,0,1-2.882-.8,5.707,5.707,0,0,1-2.013-2.178,6.485,6.485,0,0,1-.737-3.113,6.117,6.117,0,0,1,.8-3.124,5.94,5.94,0,0,1,2.178-2.189,6.015,6.015,0,0,1,3.091-.8,5.956,5.956,0,0,1,3.08.8A5.966,5.966,0,0,1,31.845-9.13a6.117,6.117,0,0,1,.8,3.124H31.79a6.485,6.485,0,0,1-.737,3.113A5.707,5.707,0,0,1,29.04-.715,5.3,5.3,0,0,1,26.158.088Zm.44-1.98a3.755,3.755,0,0,0,2-.539A3.832,3.832,0,0,0,29.986-3.9a4.342,4.342,0,0,0,.506-2.1,4.389,4.389,0,0,0-.506-2.123A3.832,3.832,0,0,0,28.6-9.6a3.755,3.755,0,0,0-2-.539,3.771,3.771,0,0,0-1.991.539A3.887,3.887,0,0,0,23.2-8.129a4.313,4.313,0,0,0-.517,2.123A4.268,4.268,0,0,0,23.2-3.9a3.887,3.887,0,0,0,1.408,1.474A3.771,3.771,0,0,0,26.6-1.892ZM31.526.022a1.089,1.089,0,0,1-.8-.319,1.089,1.089,0,0,1-.319-.8V-4.466L30.822-6.8l1.826.792V-1.1a1.089,1.089,0,0,1-.319.8A1.089,1.089,0,0,1,31.526.022Zm9.922.066a6.015,6.015,0,0,1-3.091-.8A5.94,5.94,0,0,1,36.179-2.9a6.117,6.117,0,0,1-.8-3.124,6.485,6.485,0,0,1,.737-3.113,5.707,5.707,0,0,1,2.013-2.178,5.3,5.3,0,0,1,2.882-.8,5.376,5.376,0,0,1,2.4.539,5.4,5.4,0,0,1,1.848,1.463v-5.94a1.08,1.08,0,0,1,.319-.814,1.11,1.11,0,0,1,.8-.308,1.1,1.1,0,0,1,.814.308,1.1,1.1,0,0,1,.308.814V-6.028a6.117,6.117,0,0,1-.8,3.124A5.966,5.966,0,0,1,44.528-.715,5.956,5.956,0,0,1,41.448.088Zm0-1.98a3.755,3.755,0,0,0,2-.539,3.812,3.812,0,0,0,1.386-1.485,4.406,4.406,0,0,0,.506-2.112,4.325,4.325,0,0,0-.506-2.112A3.853,3.853,0,0,0,43.45-9.6a3.755,3.755,0,0,0-2-.539,3.771,3.771,0,0,0-1.991.539A3.91,3.91,0,0,0,38.049-8.14a4.251,4.251,0,0,0-.517,2.112,4.331,4.331,0,0,0,.517,2.112,3.866,3.866,0,0,0,1.408,1.485A3.771,3.771,0,0,0,41.448-1.892ZM55.836.088a8.325,8.325,0,0,1-2.849-.473,5.459,5.459,0,0,1-2.035-1.2.958.958,0,0,1-.275-.8,1.058,1.058,0,0,1,.429-.737,1.147,1.147,0,0,1,.869-.3,1.191,1.191,0,0,1,.737.385,3.489,3.489,0,0,0,1.2.781,4.513,4.513,0,0,0,1.837.363,3.711,3.711,0,0,0,1.947-.418,1.294,1.294,0,0,0,.693-1.078,1.344,1.344,0,0,0-.627-1.144A5.992,5.992,0,0,0,55.4-5.324a6.951,6.951,0,0,1-3.223-1.32,2.763,2.763,0,0,1-1-2.156,2.682,2.682,0,0,1,.66-1.859,4,4,0,0,1,1.694-1.1,6.461,6.461,0,0,1,2.156-.363,6.715,6.715,0,0,1,2.574.462,4.389,4.389,0,0,1,1.782,1.276,1.015,1.015,0,0,1,.286.737A.852.852,0,0,1,59.95-9a1.079,1.079,0,0,1-.836.154,1.577,1.577,0,0,1-.814-.4,3,3,0,0,0-1.188-.726,4.98,4.98,0,0,0-1.474-.2A3.689,3.689,0,0,0,54-9.834a1.043,1.043,0,0,0-.671.968,1.276,1.276,0,0,0,.209.715,1.76,1.76,0,0,0,.825.572,10.592,10.592,0,0,0,1.8.495,9.81,9.81,0,0,1,2.607.836,3.479,3.479,0,0,1,1.375,1.177,2.872,2.872,0,0,1,.418,1.551,3.234,3.234,0,0,1-.539,1.826A3.706,3.706,0,0,1,58.443-.4,6.2,6.2,0,0,1,55.836.088Zm8.69,5.06A1.091,1.091,0,0,1,63.4,4.026V-6.006a6.35,6.35,0,0,1,.814-3.124,5.882,5.882,0,0,1,2.156-2.189,5.956,5.956,0,0,1,3.08-.8,6,6,0,0,1,3.1.8A5.966,5.966,0,0,1,74.723-9.13a6.117,6.117,0,0,1,.8,3.124,6.485,6.485,0,0,1-.737,3.113A5.707,5.707,0,0,1,72.776-.715a5.3,5.3,0,0,1-2.882.8,5.306,5.306,0,0,1-2.387-.539,5.661,5.661,0,0,1-1.859-1.463v5.94a1.11,1.11,0,0,1-.308.8A1.08,1.08,0,0,1,64.526,5.148Zm4.928-7.04a3.755,3.755,0,0,0,2-.539,3.915,3.915,0,0,0,1.4-1.474,4.268,4.268,0,0,0,.517-2.1,4.313,4.313,0,0,0-.517-2.123,3.915,3.915,0,0,0-1.4-1.474,3.755,3.755,0,0,0-2-.539,3.771,3.771,0,0,0-1.991.539,3.806,3.806,0,0,0-1.4,1.474,4.389,4.389,0,0,0-.506,2.123,4.342,4.342,0,0,0,.506,2.1,3.806,3.806,0,0,0,1.4,1.474A3.771,3.771,0,0,0,69.454-1.892ZM83.886.088A5.3,5.3,0,0,1,81-.715a5.707,5.707,0,0,1-2.013-2.178,6.485,6.485,0,0,1-.737-3.113,6.117,6.117,0,0,1,.8-3.124,5.94,5.94,0,0,1,2.178-2.189,6.015,6.015,0,0,1,3.091-.8,5.956,5.956,0,0,1,3.08.8A5.966,5.966,0,0,1,89.573-9.13a6.117,6.117,0,0,1,.8,3.124h-.858a6.485,6.485,0,0,1-.737,3.113A5.707,5.707,0,0,1,86.768-.715,5.3,5.3,0,0,1,83.886.088Zm.44-1.98a3.755,3.755,0,0,0,2-.539A3.832,3.832,0,0,0,87.714-3.9a4.342,4.342,0,0,0,.506-2.1,4.389,4.389,0,0,0-.506-2.123A3.832,3.832,0,0,0,86.328-9.6a3.755,3.755,0,0,0-2-.539,3.771,3.771,0,0,0-1.991.539,3.887,3.887,0,0,0-1.408,1.474,4.313,4.313,0,0,0-.517,2.123,4.268,4.268,0,0,0,.517,2.1,3.887,3.887,0,0,0,1.408,1.474A3.771,3.771,0,0,0,84.326-1.892ZM89.254.022a1.089,1.089,0,0,1-.8-.319,1.089,1.089,0,0,1-.319-.8V-4.466L88.55-6.8l1.826.792V-1.1a1.089,1.089,0,0,1-.319.8A1.089,1.089,0,0,1,89.254.022ZM94.8-7.524a4.39,4.39,0,0,1,.649-2.365A4.757,4.757,0,0,1,97.2-11.55a4.868,4.868,0,0,1,2.42-.616,3.615,3.615,0,0,1,1.969.429.907.907,0,0,1,.5,1.023.845.845,0,0,1-.253.473.874.874,0,0,1-.429.209,1.3,1.3,0,0,1-.528-.022,6.167,6.167,0,0,0-2.53-.044,3.426,3.426,0,0,0-1.771.9,2.286,2.286,0,0,0-.649,1.672ZM94.82,0a1.128,1.128,0,0,1-.814-.275A1.094,1.094,0,0,1,93.72-1.1v-9.834a1.1,1.1,0,0,1,.286-.814,1.1,1.1,0,0,1,.814-.286,1.12,1.12,0,0,1,.825.275,1.12,1.12,0,0,1,.275.825V-1.1a1.127,1.127,0,0,1-.275.814A1.094,1.094,0,0,1,94.82,0Zm11.7-4.4L105.16-5.9l6.754-6.028a.973.973,0,0,1,.737-.286.958.958,0,0,1,.693.352.959.959,0,0,1,.286.726,1.022,1.022,0,0,1-.352.7ZM105.49,0a1.056,1.056,0,0,1-.781-.3,1.056,1.056,0,0,1-.3-.781V-16.1a1.056,1.056,0,0,1,.3-.781,1.056,1.056,0,0,1,.781-.3,1.056,1.056,0,0,1,.781.3,1.056,1.056,0,0,1,.3.781V-1.078a1.056,1.056,0,0,1-.3.781A1.056,1.056,0,0,1,105.49,0Zm7.854-.11a1.071,1.071,0,0,1-.781.253.989.989,0,0,1-.715-.385l-4.466-5.522,1.54-1.452L113.5-1.584a1.039,1.039,0,0,1,.253.759A1.021,1.021,0,0,1,113.344-.11Zm4.664-7.414a4.39,4.39,0,0,1,.649-2.365,4.757,4.757,0,0,1,1.749-1.661,4.868,4.868,0,0,1,2.42-.616,3.615,3.615,0,0,1,1.969.429.907.907,0,0,1,.495,1.023.845.845,0,0,1-.253.473.874.874,0,0,1-.429.209,1.3,1.3,0,0,1-.528-.022,6.167,6.167,0,0,0-2.53-.044,3.426,3.426,0,0,0-1.771.9,2.286,2.286,0,0,0-.649,1.672ZM118.03,0a1.128,1.128,0,0,1-.814-.275,1.094,1.094,0,0,1-.286-.825v-9.834a1.1,1.1,0,0,1,.286-.814,1.1,1.1,0,0,1,.814-.286,1.12,1.12,0,0,1,.825.275,1.12,1.12,0,0,1,.275.825V-1.1a1.127,1.127,0,0,1-.275.814A1.094,1.094,0,0,1,118.03,0Z" transform="translate(198.432 447.966)" fill="#9ca3af"/>
    <g id="magnet-svgrepo-com_3_" data-name="magnet-svgrepo-com(3)" transform="translate(190.291 451.53) rotate(180)">
      <path id="Path_18" data-name="Path 18" d="M16.487,20.312H13.4A1.512,1.512,0,0,1,11.891,18.8V9.052A2.932,2.932,0,0,0,9.044,6.107,2.9,2.9,0,0,0,6.106,9v5.314a.643.643,0,1,1-1.286,0V9A4.182,4.182,0,0,1,9.064,4.821a4.223,4.223,0,0,1,4.113,4.231V18.8a.225.225,0,0,0,.225.225h3.085a.225.225,0,0,0,.225-.225V16.2A.643.643,0,1,1,18,16.2v2.6A1.512,1.512,0,0,1,16.487,20.312Zm-11.891,0H1.511A1.512,1.512,0,0,1,0,18.8V9A9,9,0,0,1,18,9v4.274a.643.643,0,1,1-1.286,0V9A7.713,7.713,0,0,0,1.286,9v9.8a.225.225,0,0,0,.225.225H4.6a.225.225,0,0,0,.225-.225V15.6a.643.643,0,1,1,1.286,0v3.2A1.512,1.512,0,0,1,4.6,20.312Z" transform="translate(0 0)" fill="#9ca3af"/>
      <path id="Path_19" data-name="Path 19" d="M4.821,0V3.76a.868.868,0,0,1-.868.868H.868A.868.868,0,0,1,0,3.76V0Z" transform="translate(12.534 15.041)" fill="#9ca3af"/>
      <path id="Path_20" data-name="Path 20" d="M4.6,5.913H1.511A1.512,1.512,0,0,1,0,4.4V.643A.643.643,0,0,1,.643,0H5.464a.643.643,0,0,1,.643.643V4.4A1.512,1.512,0,0,1,4.6,5.913ZM1.286,1.286V4.4a.225.225,0,0,0,.225.225H4.6A.225.225,0,0,0,4.821,4.4V1.286Z" transform="translate(11.891 14.398)" fill="#9ca3af"/>
      <path id="Path_21" data-name="Path 21" d="M4.821,0V3.76a.868.868,0,0,1-.868.868H.868A.868.868,0,0,1,0,3.76V0Z" transform="translate(0.643 15.041)" fill="#9ca3af"/>
      <g id="Group_7" data-name="Group 7" transform="translate(0 14.398)">
        <path id="Path_22" data-name="Path 22" d="M4.6,5.913H1.511A1.512,1.512,0,0,1,0,4.4V.643A.643.643,0,0,1,.643,0H5.464a.643.643,0,0,1,.643.643V4.4A1.512,1.512,0,0,1,4.6,5.913ZM1.286,1.286V4.4a.225.225,0,0,0,.225.225H4.6A.225.225,0,0,0,4.821,4.4V1.286Z" transform="translate(0 0)" fill="#9ca3af"/>
        <path id="Path_23" data-name="Path 23" d="M1.351,6.257a.643.643,0,0,1-.428-.8L2.208,3.543.792,3.882a.643.643,0,0,1-.726-.909L1.351.359A.643.643,0,1,1,2.5.927L1.823,2.314,3,2.032a.643.643,0,0,1,.618.185.746.746,0,0,1,.214.663L2.026,5.937A.913.913,0,0,1,1.351,6.257Z" transform="translate(7.103 2.143)" fill="#9ca3af"/>
      </g>
    </g>
  </g>
</svg>
