<svg xmlns="http://www.w3.org/2000/svg" xmlns:xlink="http://www.w3.org/1999/xlink" width="417.896" height="573.089" viewBox="0 0 417.896 573.089">
  <defs>
    <linearGradient id="linear-gradient" x1="0.664" y1="0.218" x2="0.14" y2="0.879" gradientUnits="objectBoundingBox">
      <stop offset="0" stop-color="#61dcff"/>
      <stop offset="0.124" stop-color="#60d2fe"/>
      <stop offset="0.329" stop-color="#5eb9fd"/>
      <stop offset="0.592" stop-color="#5c8ffb"/>
      <stop offset="0.898" stop-color="#5956f8"/>
      <stop offset="1" stop-color="#5842f8"/>
    </linearGradient>
  </defs>
  <path id="Path_26" data-name="Path 26" d="M1236,1210.906l-73.939-53.24a48.25,48.25,0,0,0-50.752-3.656l-62.854,32.9v38.862l79.346-41.35a12.919,12.919,0,0,1,13.583.982l75.542,54.392a13.6,13.6,0,0,1,5.395,7.464,13.949,13.949,0,0,1-7.149,16.306l-171.612,86.521a13.9,13.9,0,0,1-20.162-12.414V1170.885l149.655-77.039c15.047-7.789,25.218-21.858,27.2-37.629a47.913,47.913,0,0,0-19.724-45.467l-70.765-51.074a48.151,48.151,0,0,0-28.35-9.2,48.8,48.8,0,0,0-21.713,5.147l-11.243,5.62V999.91l27.2-13.6a12.947,12.947,0,0,1,13.4,1.085l71.19,51.373a13.562,13.562,0,0,1,5.2,7.078,14.049,14.049,0,0,1-6.9,16.56L1023.4,1131.221V922.485a48.481,48.481,0,0,0-20.78-39.782l-89.282-62.185a39.951,39.951,0,0,0-22.222-7.39q-.507-.009-1.014-.01c-13.972,0-26.789,5.063-36.187,14.32a48.053,48.053,0,0,0-14.407,34.517V1258.1a39.157,39.157,0,0,0,6,21.517c10.026,15.327,25.5,24.121,42.464,24.121a48.706,48.706,0,0,0,22.473-5.568l78.375-40.935v78.883c0,16.55,7.493,31.81,20.049,40.829a48.2,48.2,0,0,0,50.266,4.013l171.613-86.521a47.913,47.913,0,0,0,26.641-41.942C1257.868,1236.443,1249.879,1220.893,1236,1210.906Zm-247.187,7.216-94.381,49.393a13.9,13.9,0,0,1-20.339-12.321V861.955a13.69,13.69,0,0,1,7.458-12.321,14.278,14.278,0,0,1,6.54-1.625,13.568,13.568,0,0,1,7.844,2.536l92.878,64.686Z" transform="translate(-839.51 -813.118)" fill="url(#linear-gradient)"/>
</svg>
